<svg width="50" height="50" viewBox="0 0 50 50" fill="none" xmlns="http://www.w3.org/2000/svg">
<path d="M41.6667 37.5002H37.5001V19.271L25.0001 27.0835L12.5001 19.271V37.5002H8.33341V12.5002H10.8334L25.0001 21.3543L39.1667 12.5002H41.6667M41.6667 8.3335H8.33341C6.02091 8.3335 4.16675 10.1877 4.16675 12.5002V37.5002C4.16675 38.6052 4.60573 39.665 5.38714 40.4464C6.16854 41.2278 7.22835 41.6668 8.33341 41.6668H41.6667C42.7718 41.6668 43.8316 41.2278 44.613 40.4464C45.3944 39.665 45.8334 38.6052 45.8334 37.5002V12.5002C45.8334 11.3951 45.3944 10.3353 44.613 9.55388C43.8316 8.77248 42.7718 8.3335 41.6667 8.3335Z" fill="url(#paint0_linear_1_39)"/>
<defs>
<linearGradient id="paint0_linear_1_39" x1="25.0001" y1="8.3335" x2="25.0001" y2="41.6668" gradientUnits="userSpaceOnUse">
<stop stop-color="#33BA59"/>
<stop offset="0.463542" stop-color="#84F90F" stop-opacity="0.711551"/>
<stop offset="0.973958" stop-color="#81F0A0" stop-opacity="0.42"/>
</linearGradient>
</defs>
</svg>
