<svg width="38" height="38" viewBox="0 0 38 38" fill="none" xmlns="http://www.w3.org/2000/svg">
<path d="M7.79167 16.4792C10.7917 22.375 15.625 27.2083 21.5208 30.2083L26.1042 25.625C26.6875 25.0417 27.5 24.875 28.2292 25.1042C30.5625 25.875 33.0625 26.2917 35.6667 26.2917C36.2192 26.2917 36.7491 26.5112 37.1398 26.9019C37.5305 27.2926 37.75 27.8225 37.75 28.375V35.6667C37.75 36.2192 37.5305 36.7491 37.1398 37.1398C36.7491 37.5305 36.2192 37.75 35.6667 37.75C26.2736 37.75 17.2652 34.0186 10.6233 27.3767C3.98139 20.7348 0.25 11.7264 0.25 2.33333C0.25 1.7808 0.469493 1.25089 0.860194 0.860194C1.25089 0.469493 1.7808 0.25 2.33333 0.25H9.625C10.1775 0.25 10.7074 0.469493 11.0981 0.860194C11.4888 1.25089 11.7083 1.7808 11.7083 2.33333C11.7083 4.9375 12.125 7.4375 12.8958 9.77083C13.125 10.5 12.9583 11.3125 12.375 11.8958L7.79167 16.4792Z" fill="url(#paint0_linear_1_42)"/>
<defs>
<linearGradient id="paint0_linear_1_42" x1="19" y1="0.25" x2="19" y2="37.75" gradientUnits="userSpaceOnUse">
<stop stop-color="#33BA59"/>
<stop offset="0.463542" stop-color="#84F90F" stop-opacity="0.711551"/>
<stop offset="0.973958" stop-color="#81F0A0" stop-opacity="0.42"/>
</linearGradient>
</defs>
</svg>
